<?xml version="1.0" encoding="UTF-8" standalone="no"?>
<!DOCTYPE svg PUBLIC "-//W3C//DTD SVG 1.1//EN"
 "http://www.w3.org/Graphics/SVG/1.1/DTD/svg11.dtd">
<!-- Generated by graphviz version 2.43.0 (0)
 -->
<!-- Title: com.carrental.controller.AdminControllerTest.testShowAdminDashboard_WithAdminUser_ReturnsAdminDashboard Pages: 1 -->
<svg width="530pt" height="86pt"
 viewBox="0.00 0.00 530.00 86.00" xmlns="http://www.w3.org/2000/svg" xmlns:xlink="http://www.w3.org/1999/xlink">
<g id="graph0" class="graph" transform="scale(1 1) rotate(0) translate(4 82)">
<title>com.carrental.controller.AdminControllerTest.testShowAdminDashboard_WithAdminUser_ReturnsAdminDashboard</title>
<!-- Node1 -->
<g id="Node000001" class="node">
<title>Node1</title>
<g id="a_Node000001"><a xlink:title=" ">
<polygon fill="#999999" stroke="#666666" points="278,-59.5 0,-59.5 0,-18.5 278,-18.5 278,-59.5"/>
<text text-anchor="start" x="8" y="-47.5" font-family="Helvetica,sans-Serif" font-size="10.00">com.carrental.controller.</text>
<text text-anchor="start" x="8" y="-36.5" font-family="Helvetica,sans-Serif" font-size="10.00">AdminControllerTest.testShowAdmin</text>
<text text-anchor="middle" x="139" y="-25.5" font-family="Helvetica,sans-Serif" font-size="10.00">Dashboard_WithAdminUser_ReturnsAdminDashboard</text>
</a>
</g>
</g>
<!-- Node2 -->
<g id="Node000002" class="node">
<title>Node2</title>
<g id="a_Node000002"><a xlink:href="classcom_1_1carrental_1_1controller_1_1AdminControllerTest.html#a932c6b76b056b4c67b5e59fbe821ff0d" target="_top" xlink:title=" ">
<polygon fill="white" stroke="#666666" points="491,-78 345,-78 345,-48 491,-48 491,-78"/>
<text text-anchor="start" x="353" y="-66" font-family="Helvetica,sans-Serif" font-size="10.00">com.carrental.controller.</text>
<text text-anchor="middle" x="418" y="-55" font-family="Helvetica,sans-Serif" font-size="10.00">AdminControllerTest.setup</text>
</a>
</g>
</g>
<!-- Node1&#45;&gt;Node2 -->
<g id="edge1_Node000001_Node000002" class="edge">
<title>Node1&#45;&gt;Node2</title>
<g id="a_edge1_Node000001_Node000002"><a xlink:title=" ">
<path fill="none" stroke="#63b8ff" d="M278.09,-50.96C297.35,-52.63 316.62,-54.3 334.41,-55.84"/>
<polygon fill="#63b8ff" stroke="#63b8ff" points="334.44,-59.36 344.7,-56.74 335.04,-52.39 334.44,-59.36"/>
</a>
</g>
</g>
<!-- Node3 -->
<g id="Node000003" class="node">
<title>Node3</title>
<g id="a_Node000003"><a xlink:href="classcom_1_1carrental_1_1controller_1_1AdminController.html#ac3cb8b2231c64241baa49ec4279707e0" target="_top" xlink:title=" ">
<polygon fill="white" stroke="#666666" points="522,-30 314,-30 314,0 522,0 522,-30"/>
<text text-anchor="start" x="322" y="-18" font-family="Helvetica,sans-Serif" font-size="10.00">com.carrental.controller.</text>
<text text-anchor="middle" x="418" y="-7" font-family="Helvetica,sans-Serif" font-size="10.00">AdminController.showAdminDashboard</text>
</a>
</g>
</g>
<!-- Node1&#45;&gt;Node3 -->
<g id="edge2_Node000001_Node000003" class="edge">
<title>Node1&#45;&gt;Node3</title>
<g id="a_edge2_Node000001_Node000003"><a xlink:title=" ">
<path fill="none" stroke="#63b8ff" d="M278.09,-27.04C286.67,-26.29 295.25,-25.55 303.69,-24.82"/>
<polygon fill="#63b8ff" stroke="#63b8ff" points="304.26,-28.28 313.92,-23.93 303.66,-21.31 304.26,-28.28"/>
</a>
</g>
</g>
</g>
</svg>
