<?xml version="1.0" encoding="UTF-8" standalone="no"?>
<!DOCTYPE svg PUBLIC "-//W3C//DTD SVG 1.1//EN"
 "http://www.w3.org/Graphics/SVG/1.1/DTD/svg11.dtd">
<!-- Generated by graphviz version 2.43.0 (0)
 -->
<!-- Title: com.carrental.controller.AdminControllerTest.setup Pages: 1 -->
<svg width="468pt" height="533pt"
 viewBox="0.00 0.00 468.00 533.00" xmlns="http://www.w3.org/2000/svg" xmlns:xlink="http://www.w3.org/1999/xlink">
<g id="graph0" class="graph" transform="scale(1 1) rotate(0) translate(4 529)">
<title>com.carrental.controller.AdminControllerTest.setup</title>
<!-- Node1 -->
<g id="Node000001" class="node">
<title>Node1</title>
<g id="a_Node000001"><a xlink:title=" ">
<polygon fill="#999999" stroke="#666666" points="460,-283.5 314,-283.5 314,-253.5 460,-253.5 460,-283.5"/>
<text text-anchor="start" x="322" y="-271.5" font-family="Helvetica,sans-Serif" font-size="10.00">com.carrental.controller.</text>
<text text-anchor="middle" x="387" y="-260.5" font-family="Helvetica,sans-Serif" font-size="10.00">AdminControllerTest.setup</text>
</a>
</g>
</g>
<!-- Node2 -->
<g id="Node000002" class="node">
<title>Node2</title>
<g id="a_Node000002"><a xlink:href="classcom_1_1carrental_1_1controller_1_1AdminControllerTest.html#af947d81fd483d0f74e61006df152a5fa" target="_top" xlink:title=" ">
<polygon fill="white" stroke="#666666" points="249.5,-525 28.5,-525 28.5,-484 249.5,-484 249.5,-525"/>
<text text-anchor="start" x="36.5" y="-513" font-family="Helvetica,sans-Serif" font-size="10.00">com.carrental.controller.</text>
<text text-anchor="start" x="36.5" y="-502" font-family="Helvetica,sans-Serif" font-size="10.00">AdminControllerTest.testConfirm</text>
<text text-anchor="middle" x="139" y="-491" font-family="Helvetica,sans-Serif" font-size="10.00">Booking_RedirectsToPendingReservations</text>
</a>
</g>
</g>
<!-- Node1&#45;&gt;Node2 -->
<g id="edge1_Node000001_Node000002" class="edge">
<title>Node1&#45;&gt;Node2</title>
<g id="a_edge1_Node000001_Node000002"><a xlink:title=" ">
<path fill="none" stroke="#63b8ff" d="M380.38,-293.51C369.09,-337.64 339.33,-429.02 278,-475.5 269.42,-482.01 259.7,-487.13 249.51,-491.16"/>
<polygon fill="#63b8ff" stroke="#63b8ff" points="383.82,-294.16 382.8,-283.61 377.02,-292.5 383.82,-294.16"/>
</a>
</g>
</g>
<!-- Node3 -->
<g id="Node000003" class="node">
<title>Node3</title>
<g id="a_Node000003"><a xlink:href="classcom_1_1carrental_1_1controller_1_1AdminControllerTest.html#a9554fd999c64f5ce704f8150ca7b7fda" target="_top" xlink:title=" ">
<polygon fill="white" stroke="#666666" points="224,-466 54,-466 54,-425 224,-425 224,-466"/>
<text text-anchor="start" x="62" y="-454" font-family="Helvetica,sans-Serif" font-size="10.00">com.carrental.controller.</text>
<text text-anchor="start" x="62" y="-443" font-family="Helvetica,sans-Serif" font-size="10.00">AdminControllerTest.testDelete</text>
<text text-anchor="middle" x="139" y="-432" font-family="Helvetica,sans-Serif" font-size="10.00">User_RedirectsToUsers</text>
</a>
</g>
</g>
<!-- Node1&#45;&gt;Node3 -->
<g id="edge2_Node000001_Node000003" class="edge">
<title>Node1&#45;&gt;Node3</title>
<g id="a_edge2_Node000001_Node000003"><a xlink:title=" ">
<path fill="none" stroke="#63b8ff" d="M375.38,-292.57C359.34,-325.96 325.66,-385.7 278,-416.5 261.96,-426.87 242.89,-433.61 224.11,-437.97"/>
<polygon fill="#63b8ff" stroke="#63b8ff" points="378.55,-294.04 379.61,-283.5 372.21,-291.08 378.55,-294.04"/>
</a>
</g>
</g>
<!-- Node4 -->
<g id="Node000004" class="node">
<title>Node4</title>
<g id="a_Node000004"><a xlink:href="classcom_1_1carrental_1_1controller_1_1AdminControllerTest.html#a039e5df4898ebbe2ec29f2643d5439c8" target="_top" xlink:title=" ">
<polygon fill="white" stroke="#666666" points="228.5,-407 49.5,-407 49.5,-366 228.5,-366 228.5,-407"/>
<text text-anchor="start" x="57.5" y="-395" font-family="Helvetica,sans-Serif" font-size="10.00">com.carrental.controller.</text>
<text text-anchor="start" x="57.5" y="-384" font-family="Helvetica,sans-Serif" font-size="10.00">AdminControllerTest.testEditUser</text>
<text text-anchor="middle" x="139" y="-373" font-family="Helvetica,sans-Serif" font-size="10.00">Form_ReturnsEditUserView</text>
</a>
</g>
</g>
<!-- Node1&#45;&gt;Node4 -->
<g id="edge3_Node000001_Node000004" class="edge">
<title>Node1&#45;&gt;Node4</title>
<g id="a_edge3_Node000001_Node000004"><a xlink:title=" ">
<path fill="none" stroke="#63b8ff" d="M365.1,-291.09C344.82,-311.6 312.17,-341.07 278,-357.5 262.67,-364.87 245.49,-370.38 228.59,-374.49"/>
<polygon fill="#63b8ff" stroke="#63b8ff" points="367.8,-293.33 372.24,-283.71 362.77,-288.46 367.8,-293.33"/>
</a>
</g>
</g>
<!-- Node5 -->
<g id="Node000005" class="node">
<title>Node5</title>
<g id="a_Node000005"><a xlink:href="classcom_1_1carrental_1_1controller_1_1AdminControllerTest.html#a5d8f93af8a4f814dffc2fb5a4c8fdb7f" target="_top" xlink:title=" ">
<polygon fill="white" stroke="#666666" points="264,-348 14,-348 14,-307 264,-307 264,-348"/>
<text text-anchor="start" x="22" y="-336" font-family="Helvetica,sans-Serif" font-size="10.00">com.carrental.controller.</text>
<text text-anchor="start" x="22" y="-325" font-family="Helvetica,sans-Serif" font-size="10.00">AdminControllerTest.testPending</text>
<text text-anchor="middle" x="139" y="-314" font-family="Helvetica,sans-Serif" font-size="10.00">Reservations_ReturnsPendingReservationsView</text>
</a>
</g>
</g>
<!-- Node1&#45;&gt;Node5 -->
<g id="edge4_Node000001_Node000005" class="edge">
<title>Node1&#45;&gt;Node5</title>
<g id="a_edge4_Node000001_Node000005"><a xlink:title=" ">
<path fill="none" stroke="#63b8ff" d="M324.72,-286.25C309.5,-290.46 293.2,-294.8 278,-298.5 266.23,-301.37 253.85,-304.21 241.53,-306.93"/>
<polygon fill="#63b8ff" stroke="#63b8ff" points="325.84,-289.57 334.54,-283.52 323.96,-282.83 325.84,-289.57"/>
</a>
</g>
</g>
<!-- Node6 -->
<g id="Node000006" class="node">
<title>Node6</title>
<g id="a_Node000006"><a xlink:href="classcom_1_1carrental_1_1controller_1_1AdminControllerTest.html#a901534843197809c9d09ac58bc551d4e" target="_top" xlink:title=" ">
<polygon fill="white" stroke="#666666" points="231.5,-289 46.5,-289 46.5,-248 231.5,-248 231.5,-289"/>
<text text-anchor="start" x="54.5" y="-277" font-family="Helvetica,sans-Serif" font-size="10.00">com.carrental.controller.</text>
<text text-anchor="start" x="54.5" y="-266" font-family="Helvetica,sans-Serif" font-size="10.00">AdminControllerTest.testRental</text>
<text text-anchor="middle" x="139" y="-255" font-family="Helvetica,sans-Serif" font-size="10.00">History_ReturnsRentalHistoryView</text>
</a>
</g>
</g>
<!-- Node1&#45;&gt;Node6 -->
<g id="edge5_Node000001_Node000006" class="edge">
<title>Node1&#45;&gt;Node6</title>
<g id="a_edge5_Node000001_Node000006"><a xlink:title=" ">
<path fill="none" stroke="#63b8ff" d="M303.76,-268.5C280.69,-268.5 255.46,-268.5 231.86,-268.5"/>
<polygon fill="#63b8ff" stroke="#63b8ff" points="303.85,-272 313.85,-268.5 303.85,-265 303.85,-272"/>
</a>
</g>
</g>
<!-- Node7 -->
<g id="Node000007" class="node">
<title>Node7</title>
<g id="a_Node000007"><a xlink:href="classcom_1_1carrental_1_1controller_1_1AdminControllerTest.html#ab3cd66384e23fb0970c7aa6d7122d43c" target="_top" xlink:title=" ">
<polygon fill="white" stroke="#666666" points="278,-230 0,-230 0,-189 278,-189 278,-230"/>
<text text-anchor="start" x="8" y="-218" font-family="Helvetica,sans-Serif" font-size="10.00">com.carrental.controller.</text>
<text text-anchor="start" x="8" y="-207" font-family="Helvetica,sans-Serif" font-size="10.00">AdminControllerTest.testShowAdmin</text>
<text text-anchor="middle" x="139" y="-196" font-family="Helvetica,sans-Serif" font-size="10.00">Dashboard_WithAdminUser_ReturnsAdminDashboard</text>
</a>
</g>
</g>
<!-- Node1&#45;&gt;Node7 -->
<g id="edge6_Node000001_Node000007" class="edge">
<title>Node1&#45;&gt;Node7</title>
<g id="a_edge6_Node000001_Node000007"><a xlink:title=" ">
<path fill="none" stroke="#63b8ff" d="M322.15,-250.81C307.67,-246.95 292.33,-242.98 278,-239.5 264.9,-236.32 251.05,-233.12 237.39,-230.06"/>
<polygon fill="#63b8ff" stroke="#63b8ff" points="321.45,-254.25 332.02,-253.46 323.27,-247.48 321.45,-254.25"/>
</a>
</g>
</g>
<!-- Node8 -->
<g id="Node000008" class="node">
<title>Node8</title>
<g id="a_Node000008"><a xlink:href="classcom_1_1carrental_1_1controller_1_1AdminControllerTest.html#a8071aaf24d8859b8d50919f918d4c212" target="_top" xlink:title=" ">
<polygon fill="white" stroke="#666666" points="255,-170.5 23,-170.5 23,-118.5 255,-118.5 255,-170.5"/>
<text text-anchor="start" x="31" y="-158.5" font-family="Helvetica,sans-Serif" font-size="10.00">com.carrental.controller.</text>
<text text-anchor="start" x="31" y="-147.5" font-family="Helvetica,sans-Serif" font-size="10.00">AdminControllerTest.testShowAdmin</text>
<text text-anchor="start" x="31" y="-136.5" font-family="Helvetica,sans-Serif" font-size="10.00">Dashboard_WithNonAdminUser_RedirectsTo</text>
<text text-anchor="middle" x="139" y="-125.5" font-family="Helvetica,sans-Serif" font-size="10.00">AccessDenied</text>
</a>
</g>
</g>
<!-- Node1&#45;&gt;Node8 -->
<g id="edge7_Node000001_Node000008" class="edge">
<title>Node1&#45;&gt;Node8</title>
<g id="a_edge7_Node000001_Node000008"><a xlink:title=" ">
<path fill="none" stroke="#63b8ff" d="M364.51,-246.2C344.05,-226.21 311.47,-197.48 278,-180.5 270.71,-176.8 263.01,-173.46 255.12,-170.45"/>
<polygon fill="#63b8ff" stroke="#63b8ff" points="362.19,-248.82 371.74,-253.4 367.12,-243.86 362.19,-248.82"/>
</a>
</g>
</g>
<!-- Node9 -->
<g id="Node000009" class="node">
<title>Node9</title>
<g id="a_Node000009"><a xlink:href="classcom_1_1carrental_1_1controller_1_1AdminControllerTest.html#aa945848c6aac1428e1b05473694303ab" target="_top" xlink:title=" ">
<polygon fill="white" stroke="#666666" points="225.5,-100 52.5,-100 52.5,-59 225.5,-59 225.5,-100"/>
<text text-anchor="start" x="60.5" y="-88" font-family="Helvetica,sans-Serif" font-size="10.00">com.carrental.controller.</text>
<text text-anchor="start" x="60.5" y="-77" font-family="Helvetica,sans-Serif" font-size="10.00">AdminControllerTest.testUpdate</text>
<text text-anchor="middle" x="139" y="-66" font-family="Helvetica,sans-Serif" font-size="10.00">User_RedirectsToUsers</text>
</a>
</g>
</g>
<!-- Node1&#45;&gt;Node9 -->
<g id="edge8_Node000001_Node000009" class="edge">
<title>Node1&#45;&gt;Node9</title>
<g id="a_edge8_Node000001_Node000009"><a xlink:title=" ">
<path fill="none" stroke="#63b8ff" d="M376.31,-243.8C361.02,-208.22 327.83,-143.16 278,-109.5 262.56,-99.07 244.12,-92.19 225.83,-87.67"/>
<polygon fill="#63b8ff" stroke="#63b8ff" points="373.24,-245.52 380.31,-253.41 379.7,-242.83 373.24,-245.52"/>
</a>
</g>
</g>
<!-- Node10 -->
<g id="Node000010" class="node">
<title>Node10</title>
<g id="a_Node000010"><a xlink:href="classcom_1_1carrental_1_1controller_1_1AdminControllerTest.html#a78d8e3bddf32939a845d021a742bd9f0" target="_top" xlink:title=" ">
<polygon fill="white" stroke="#666666" points="251,-41 27,-41 27,0 251,0 251,-41"/>
<text text-anchor="start" x="35" y="-29" font-family="Helvetica,sans-Serif" font-size="10.00">com.carrental.controller.</text>
<text text-anchor="start" x="35" y="-18" font-family="Helvetica,sans-Serif" font-size="10.00">AdminControllerTest.testUserManagement</text>
<text text-anchor="middle" x="139" y="-7" font-family="Helvetica,sans-Serif" font-size="10.00">_ReturnsUserManagementView</text>
</a>
</g>
</g>
<!-- Node1&#45;&gt;Node10 -->
<g id="edge9_Node000001_Node000010" class="edge">
<title>Node1&#45;&gt;Node10</title>
<g id="a_edge9_Node000001_Node000010"><a xlink:title=" ">
<path fill="none" stroke="#63b8ff" d="M380.98,-243.2C370.47,-197.22 341.67,-100.16 278,-50.5 269.88,-44.17 260.71,-39.1 251.05,-35.07"/>
<polygon fill="#63b8ff" stroke="#63b8ff" points="377.61,-244.19 383.16,-253.22 384.45,-242.7 377.61,-244.19"/>
</a>
</g>
</g>
</g>
</svg>
