<?xml version="1.0" encoding="UTF-8" standalone="no"?>
<!DOCTYPE svg PUBLIC "-//W3C//DTD SVG 1.1//EN"
 "http://www.w3.org/Graphics/SVG/1.1/DTD/svg11.dtd">
<!-- Generated by graphviz version 2.43.0 (0)
 -->
<!-- Title: com.carrental.controller.AdminControllerTest.testConfirmBooking_RedirectsToPendingReservations Pages: 1 -->
<svg width="440pt" height="86pt"
 viewBox="0.00 0.00 440.00 86.00" xmlns="http://www.w3.org/2000/svg" xmlns:xlink="http://www.w3.org/1999/xlink">
<g id="graph0" class="graph" transform="scale(1 1) rotate(0) translate(4 82)">
<title>com.carrental.controller.AdminControllerTest.testConfirmBooking_RedirectsToPendingReservations</title>
<!-- Node1 -->
<g id="Node000001" class="node">
<title>Node1</title>
<g id="a_Node000001"><a xlink:title=" ">
<polygon fill="#999999" stroke="#666666" points="221,-59.5 0,-59.5 0,-18.5 221,-18.5 221,-59.5"/>
<text text-anchor="start" x="8" y="-47.5" font-family="Helvetica,sans-Serif" font-size="10.00">com.carrental.controller.</text>
<text text-anchor="start" x="8" y="-36.5" font-family="Helvetica,sans-Serif" font-size="10.00">AdminControllerTest.testConfirm</text>
<text text-anchor="middle" x="110.5" y="-25.5" font-family="Helvetica,sans-Serif" font-size="10.00">Booking_RedirectsToPendingReservations</text>
</a>
</g>
</g>
<!-- Node2 -->
<g id="Node000002" class="node">
<title>Node2</title>
<g id="a_Node000002"><a xlink:href="classcom_1_1carrental_1_1controller_1_1AdminController.html#a78ced4a3cec9cba7d89ac7edb5c7fc68" target="_top" xlink:title=" ">
<polygon fill="white" stroke="#666666" points="432,-78 257,-78 257,-48 432,-48 432,-78"/>
<text text-anchor="start" x="265" y="-66" font-family="Helvetica,sans-Serif" font-size="10.00">com.carrental.controller.</text>
<text text-anchor="middle" x="344.5" y="-55" font-family="Helvetica,sans-Serif" font-size="10.00">AdminController.confirmBooking</text>
</a>
</g>
</g>
<!-- Node1&#45;&gt;Node2 -->
<g id="edge1_Node000001_Node000002" class="edge">
<title>Node1&#45;&gt;Node2</title>
<g id="a_edge1_Node000001_Node000002"><a xlink:title=" ">
<path fill="none" stroke="#63b8ff" d="M221.05,-50.33C229.55,-51.21 238.11,-52.1 246.52,-52.97"/>
<polygon fill="#63b8ff" stroke="#63b8ff" points="246.4,-56.47 256.71,-54.02 247.12,-49.51 246.4,-56.47"/>
</a>
</g>
</g>
<!-- Node3 -->
<g id="Node000003" class="node">
<title>Node3</title>
<g id="a_Node000003"><a xlink:href="classcom_1_1carrental_1_1controller_1_1AdminControllerTest.html#a932c6b76b056b4c67b5e59fbe821ff0d" target="_top" xlink:title=" ">
<polygon fill="white" stroke="#666666" points="417.5,-30 271.5,-30 271.5,0 417.5,0 417.5,-30"/>
<text text-anchor="start" x="279.5" y="-18" font-family="Helvetica,sans-Serif" font-size="10.00">com.carrental.controller.</text>
<text text-anchor="middle" x="344.5" y="-7" font-family="Helvetica,sans-Serif" font-size="10.00">AdminControllerTest.setup</text>
</a>
</g>
</g>
<!-- Node1&#45;&gt;Node3 -->
<g id="edge2_Node000001_Node000003" class="edge">
<title>Node1&#45;&gt;Node3</title>
<g id="a_edge2_Node000001_Node000003"><a xlink:title=" ">
<path fill="none" stroke="#63b8ff" d="M221.05,-27.67C234.56,-26.27 248.2,-24.86 261.21,-23.51"/>
<polygon fill="#63b8ff" stroke="#63b8ff" points="261.91,-26.96 271.5,-22.45 261.19,-20 261.91,-26.96"/>
</a>
</g>
</g>
</g>
</svg>
