<?xml version="1.0" encoding="UTF-8" standalone="no"?>
<!DOCTYPE svg PUBLIC "-//W3C//DTD SVG 1.1//EN"
 "http://www.w3.org/Graphics/SVG/1.1/DTD/svg11.dtd">
<!-- Generated by graphviz version 2.43.0 (0)
 -->
<!-- Title: carrental Pages: 1 -->
<!--zoomable 94 -->

<svg id="main" version="1.1" xmlns="http://www.w3.org/2000/svg" xmlns:xlink="http://www.w3.org/1999/xlink" xml:space="preserve" onload="init(evt)">
<style type="text/css"><![CDATA[
.node, .edge {opacity: 0.7;}
.node.selected, .edge.selected {opacity: 1;}
.edge:hover path { stroke: red; }
.edge:hover polygon { stroke: red; fill: red; }
]]></style>

<defs>
  <circle id="rim" cx="0" cy="0" r="7"/>
  <circle id="rim2" cx="0" cy="0" r="3.5"/>
  <g id="zoomPlus">
    <use xlink:href="#rim" fill="#404040"><set attributeName="fill" to="#808080" begin="zoomplus.mouseover" end="zoomplus.mouseout"/></use>
    <path d="M-4,0h8M0,-4v8" fill="none" stroke="white" stroke-width="1.5" pointer-events="none"/>
  </g>
  <g id="zoomMin">
    <use xlink:href="#rim" fill="#404040"><set attributeName="fill" to="#808080" begin="zoomminus.mouseover" end="zoomminus.mouseout"/></use>
    <path d="M-4,0h8" fill="none" stroke="white" stroke-width="1.5" pointer-events="none"/>
  </g>
  <g id="arrowUp" transform="translate(30 24)">
    <use xlink:href="#rim"/>
    <path pointer-events="none" fill="none" stroke="white" stroke-width="1.5" d="M0,-3.0v7 M-2.5,-0.5L0,-3.0L2.5,-0.5"/>
  </g>
  <g id="arrowRight" transform="rotate(90) translate(36 -43)">
    <use xlink:href="#rim"/>
    <path pointer-events="none" fill="none" stroke="white" stroke-width="1.5" d="M0,-3.0v7 M-2.5,-0.5L0,-3.0L2.5,-0.5"/>
  </g>
  <g id="arrowDown" transform="rotate(180) translate(-30 -48)">
    <use xlink:href="#rim"/>
    <path pointer-events="none" fill="none" stroke="white" stroke-width="1.5" d="M0,-3.0v7 M-2.5,-0.5L0,-3.0L2.5,-0.5"/>
  </g>
  <g id="arrowLeft" transform="rotate(270) translate(-36 17)">
    <use xlink:href="#rim"/>
    <path pointer-events="none" fill="none" stroke="white" stroke-width="1.5" d="M0,-3.0v7 M-2.5,-0.5L0,-3.0L2.5,-0.5"/>
  </g>
  <g id="resetDef">
    <use xlink:href="#rim2" fill="#404040"><set attributeName="fill" to="#808080" begin="reset.mouseover" end="reset.mouseout"/></use>
  </g>
</defs>
<script type="application/ecmascript">
var viewWidth = 695;
var viewHeight = 94;
var sectionId = 'dynsection-0';
</script>
<script type="application/ecmascript" xlink:href="svg.min.js"/>
<svg id="graph" class="graph">
<g id="viewport">
<title>carrental</title>
<g id="clust1" class="cluster">
<title>clusterdir_d8517d8b842053dc3dd7dde525dd9163</title>
<g id="a_clust1"><a xlink:href="dir_d8517d8b842053dc3dd7dde525dd9163.html" target="_top" xlink:title="com">
<polygon fill="#edf0f7" stroke="#7f7f7f" stroke-dasharray="5,2" points="8,-8 8,-78 679,-78 679,-8 8,-8"/>
<text text-anchor="middle" x="343.5" y="-66" font-family="Helvetica,sans-Serif" font-size="10.00">com</text>
</a>
</g>
</g>
<g id="clust2" class="cluster">
<title>clusterdir_0413048388f6e69415fc9970396d720c</title>
<g id="a_clust2"><a xlink:href="dir_0413048388f6e69415fc9970396d720c.html" target="_top">
<polygon fill="#edf0f7" stroke="#404040" stroke-width="2" points="16,-16 16,-51 671,-51 671,-16 16,-16"/>
</a>
</g>
</g>
<!-- dir_0413048388f6e69415fc9970396d720c -->
<g id="node1" class="node">
<title>dir_0413048388f6e69415fc9970396d720c</title>
<text text-anchor="middle" x="633" y="-31" font-family="Helvetica,sans-Serif" font-size="10.00">carrental</text>
</g>
<!-- dir_f4a9331a4af8527c6afa80eb24325546 -->
<g id="node2" class="node">
<title>dir_f4a9331a4af8527c6afa80eb24325546</title>
<g id="a_node2"><a xlink:href="dir_f4a9331a4af8527c6afa80eb24325546.html" target="_top" xlink:title="config">
<polygon fill="#a2b4d6" stroke="#404040" points="585,-43 539,-43 539,-24 585,-24 585,-43"/>
<text text-anchor="middle" x="562" y="-31" font-family="Helvetica,sans-Serif" font-size="10.00">config</text>
</a>
</g>
</g>
<!-- dir_985f774bf44e492e3dd8d4221220ce2c -->
<g id="node3" class="node">
<title>dir_985f774bf44e492e3dd8d4221220ce2c</title>
<g id="a_node3"><a xlink:href="dir_985f774bf44e492e3dd8d4221220ce2c.html" target="_top" xlink:title="controller">
<polygon fill="#a2b4d6" stroke="#404040" points="520.5,-43 457.5,-43 457.5,-24 520.5,-24 520.5,-43"/>
<text text-anchor="middle" x="489" y="-31" font-family="Helvetica,sans-Serif" font-size="10.00">controller</text>
</a>
</g>
</g>
<!-- dir_62f2a6e07b9f3b1768bf3c042fad614a -->
<g id="node4" class="node">
<title>dir_62f2a6e07b9f3b1768bf3c042fad614a</title>
<g id="a_node4"><a xlink:href="dir_62f2a6e07b9f3b1768bf3c042fad614a.html" target="_top" xlink:title="database">
<polygon fill="#a2b4d6" stroke="#404040" points="439,-43 377,-43 377,-24 439,-24 439,-43"/>
<text text-anchor="middle" x="408" y="-31" font-family="Helvetica,sans-Serif" font-size="10.00">database</text>
</a>
</g>
</g>
<!-- dir_d2ee8839f16477a48aee5ffc105624b8 -->
<g id="node5" class="node">
<title>dir_d2ee8839f16477a48aee5ffc105624b8</title>
<g id="a_node5"><a xlink:href="dir_d2ee8839f16477a48aee5ffc105624b8.html" target="_top" xlink:title="dto">
<polygon fill="#a2b4d6" stroke="#404040" points="359,-43 327,-43 327,-24 359,-24 359,-43"/>
<text text-anchor="middle" x="343" y="-31" font-family="Helvetica,sans-Serif" font-size="10.00">dto</text>
</a>
</g>
</g>
<!-- dir_8b29fc26fc6a8b0b76b99679bc3bdcdf -->
<g id="node6" class="node">
<title>dir_8b29fc26fc6a8b0b76b99679bc3bdcdf</title>
<g id="a_node6"><a xlink:href="dir_8b29fc26fc6a8b0b76b99679bc3bdcdf.html" target="_top" xlink:title="gateway">
<polygon fill="#a2b4d6" stroke="#404040" points="308.5,-43 249.5,-43 249.5,-24 308.5,-24 308.5,-43"/>
<text text-anchor="middle" x="279" y="-31" font-family="Helvetica,sans-Serif" font-size="10.00">gateway</text>
</a>
</g>
</g>
<!-- dir_ae419b9310ef16bfb5362ea131eff017 -->
<g id="node7" class="node">
<title>dir_ae419b9310ef16bfb5362ea131eff017</title>
<g id="a_node7"><a xlink:href="dir_ae419b9310ef16bfb5362ea131eff017.html" target="_top" xlink:title="models">
<polygon fill="#a2b4d6" stroke="#404040" points="231.5,-43 178.5,-43 178.5,-24 231.5,-24 231.5,-43"/>
<text text-anchor="middle" x="205" y="-31" font-family="Helvetica,sans-Serif" font-size="10.00">models</text>
</a>
</g>
</g>
<!-- dir_ba5ebc4d710bd3c100df41b34bbeb4a5 -->
<g id="node8" class="node">
<title>dir_ba5ebc4d710bd3c100df41b34bbeb4a5</title>
<g id="a_node8"><a xlink:href="dir_ba5ebc4d710bd3c100df41b34bbeb4a5.html" target="_top" xlink:title="repository">
<polygon fill="#a2b4d6" stroke="#404040" points="160,-43 94,-43 94,-24 160,-24 160,-43"/>
<text text-anchor="middle" x="127" y="-31" font-family="Helvetica,sans-Serif" font-size="10.00">repository</text>
</a>
</g>
</g>
<!-- dir_f760d11eae8d4bbb8664d4092a3527ea -->
<g id="node9" class="node">
<title>dir_f760d11eae8d4bbb8664d4092a3527ea</title>
<g id="a_node9"><a xlink:href="dir_f760d11eae8d4bbb8664d4092a3527ea.html" target="_top" xlink:title="service">
<polygon fill="#a2b4d6" stroke="#404040" points="76,-43 24,-43 24,-24 76,-24 76,-43"/>
<text text-anchor="middle" x="50" y="-31" font-family="Helvetica,sans-Serif" font-size="10.00">service</text>
</a>
</g>
</g>
</g>
</svg>

<g id="navigator" transform="translate(0 0)" fill="#404254">
  <rect fill="#f2f5e9" fill-opacity="0.5" stroke="#606060" stroke-width=".5" x="0" y="0" width="60" height="60"/>
  <use id="zoomplus" xlink:href="#zoomPlus" x="17" y="9" onmousedown="handleZoom(evt,'in')"/>
  <use id="zoomminus" xlink:href="#zoomMin" x="42" y="9" onmousedown="handleZoom(evt,'out')"/>
  <use id="reset" xlink:href="#resetDef" x="30" y="36" onmousedown="handleReset()"/>
   <use id="arrowup" xlink:href="#arrowUp" x="0" y="0" onmousedown="handlePan(0,-1)"/>
  <use id="arrowright" xlink:href="#arrowRight" x="0" y="0" onmousedown="handlePan(1,0)"/>
  <use id="arrowdown" xlink:href="#arrowDown" x="0" y="0" onmousedown="handlePan(0,1)"/>
  <use id="arrowleft" xlink:href="#arrowLeft" x="0" y="0" onmousedown="handlePan(-1,0)"/>
</g>
<svg viewBox="0 0 15 15" width="100%" height="30px" preserveAspectRatio="xMaxYMin meet">
 <g id="arrow_out" transform="scale(0.3 0.3)">
  <a xlink:href="dir_0413048388f6e69415fc9970396d720c_dep_org.svg" target="_base">
   <rect id="button" ry="5" rx="5" y="6" x="6" height="38" width="38"
        fill="#f2f5e9" fill-opacity="0.5" stroke="#606060" stroke-width="1.0"/>
   <path id="arrow"
     d="M 11.500037,31.436501 C 11.940474,20.09759 22.043105,11.32322 32.158766,21.979434 L 37.068811,17.246167 C 37.068811,17.246167 37.088388,32 37.088388,32 L 22.160133,31.978069 C 22.160133,31.978069 26.997745,27.140456 26.997745,27.140456 C 18.528582,18.264221 13.291696,25.230495 11.500037,31.436501 z"
     style="fill:#404040;"/>
  </a>
 </g>
</svg>

<style type='text/css'>
<![CDATA[
[data-mouse-over-selected='false'] { opacity: 0.7; }
[data-mouse-over-selected='true']  { opacity: 1.0; }
]]>
</style>
<script type="application/ecmascript"><![CDATA[
document.addEventListener('DOMContentLoaded', (event) => {
  highlightEdges();
  highlightAdjacentNodes();
});
]]></script>
</svg>
