<?xml version="1.0" encoding="UTF-8" standalone="no"?>
<!DOCTYPE svg PUBLIC "-//W3C//DTD SVG 1.1//EN"
 "http://www.w3.org/Graphics/SVG/1.1/DTD/svg11.dtd">
<!-- Generated by graphviz version 2.43.0 (0)
 -->
<!-- Title: Graphical Class Hierarchy Pages: 1 -->
<svg width="266pt" height="182pt"
 viewBox="0.00 0.00 266.00 182.00" xmlns="http://www.w3.org/2000/svg" xmlns:xlink="http://www.w3.org/1999/xlink">
<g id="graph0" class="graph" transform="scale(1 1) rotate(0) translate(4 178)">
<title>Graphical Class Hierarchy</title>
<!-- Node0 -->
<g id="Node000000" class="node">
<title>Node0</title>
<g id="a_Node000000"><a xlink:title=" ">
<polygon fill="#e0e0e0" stroke="#999999" points="84,-96.5 0,-96.5 0,-77.5 84,-77.5 84,-96.5"/>
<text text-anchor="middle" x="42" y="-84.5" font-family="Helvetica,sans-Serif" font-size="10.00">JpaRepository</text>
</a>
</g>
</g>
<!-- Node1 -->
<g id="Node000001" class="node">
<title>Node1</title>
<g id="a_Node000001"><a xlink:href="interfacecom_1_1carrental_1_1repository_1_1BookingRepository.html" target="_top" xlink:title=" ">
<polygon fill="white" stroke="#666666" points="258,-174 120,-174 120,-144 258,-144 258,-174"/>
<text text-anchor="start" x="128" y="-162" font-family="Helvetica,sans-Serif" font-size="10.00">com.carrental.repository.</text>
<text text-anchor="middle" x="189" y="-151" font-family="Helvetica,sans-Serif" font-size="10.00">BookingRepository</text>
</a>
</g>
</g>
<!-- Node0&#45;&gt;Node1 -->
<g id="edge3_Node000000_Node000001" class="edge">
<title>Node0&#45;&gt;Node1</title>
<g id="a_edge3_Node000000_Node000001"><a xlink:title=" ">
<path fill="none" stroke="#63b8ff" d="M64.96,-102.49C79.98,-112.62 100.6,-125.67 120,-135 126.66,-138.2 133.86,-141.2 141,-143.93"/>
<polygon fill="#63b8ff" stroke="#63b8ff" points="66.62,-99.38 56.39,-96.61 62.66,-105.16 66.62,-99.38"/>
</a>
</g>
</g>
<!-- Node2 -->
<g id="Node000002" class="node">
<title>Node2</title>
<g id="a_Node000002"><a xlink:href="interfacecom_1_1carrental_1_1repository_1_1CarRepository.html" target="_top" xlink:title=" ">
<polygon fill="white" stroke="#666666" points="258,-126 120,-126 120,-96 258,-96 258,-126"/>
<text text-anchor="start" x="128" y="-114" font-family="Helvetica,sans-Serif" font-size="10.00">com.carrental.repository.</text>
<text text-anchor="middle" x="189" y="-103" font-family="Helvetica,sans-Serif" font-size="10.00">CarRepository</text>
</a>
</g>
</g>
<!-- Node0&#45;&gt;Node2 -->
<g id="edge4_Node000000_Node000002" class="edge">
<title>Node0&#45;&gt;Node2</title>
<g id="a_edge4_Node000000_Node000002"><a xlink:title=" ">
<path fill="none" stroke="#63b8ff" d="M94.09,-95.46C102.43,-96.84 111.18,-98.29 119.85,-99.72"/>
<polygon fill="#63b8ff" stroke="#63b8ff" points="94.6,-91.99 84.16,-93.81 93.46,-98.9 94.6,-91.99"/>
</a>
</g>
</g>
<!-- Node3 -->
<g id="Node000003" class="node">
<title>Node3</title>
<g id="a_Node000003"><a xlink:href="interfacecom_1_1carrental_1_1repository_1_1InsuranceRepository.html" target="_top" xlink:title=" ">
<polygon fill="white" stroke="#666666" points="258,-78 120,-78 120,-48 258,-48 258,-78"/>
<text text-anchor="start" x="128" y="-66" font-family="Helvetica,sans-Serif" font-size="10.00">com.carrental.repository.</text>
<text text-anchor="middle" x="189" y="-55" font-family="Helvetica,sans-Serif" font-size="10.00">InsuranceRepository</text>
</a>
</g>
</g>
<!-- Node0&#45;&gt;Node3 -->
<g id="edge5_Node000000_Node000003" class="edge">
<title>Node0&#45;&gt;Node3</title>
<g id="a_edge5_Node000000_Node000003"><a xlink:title=" ">
<path fill="none" stroke="#63b8ff" d="M94.09,-78.54C102.43,-77.16 111.18,-75.71 119.85,-74.28"/>
<polygon fill="#63b8ff" stroke="#63b8ff" points="93.46,-75.1 84.16,-80.19 94.6,-82.01 93.46,-75.1"/>
</a>
</g>
</g>
<!-- Node4 -->
<g id="Node000004" class="node">
<title>Node4</title>
<g id="a_Node000004"><a xlink:href="interfacecom_1_1carrental_1_1repository_1_1UserRepository.html" target="_top" xlink:title=" ">
<polygon fill="white" stroke="#666666" points="258,-30 120,-30 120,0 258,0 258,-30"/>
<text text-anchor="start" x="128" y="-18" font-family="Helvetica,sans-Serif" font-size="10.00">com.carrental.repository.</text>
<text text-anchor="middle" x="189" y="-7" font-family="Helvetica,sans-Serif" font-size="10.00">UserRepository</text>
</a>
</g>
</g>
<!-- Node0&#45;&gt;Node4 -->
<g id="edge6_Node000000_Node000004" class="edge">
<title>Node0&#45;&gt;Node4</title>
<g id="a_edge6_Node000000_Node000004"><a xlink:title=" ">
<path fill="none" stroke="#63b8ff" d="M64.96,-71.51C79.98,-61.38 100.6,-48.33 120,-39 126.66,-35.8 133.86,-32.8 141,-30.07"/>
<polygon fill="#63b8ff" stroke="#63b8ff" points="62.66,-68.84 56.39,-77.39 66.62,-74.62 62.66,-68.84"/>
</a>
</g>
</g>
</g>
</svg>
