<?xml version="1.0" encoding="UTF-8" standalone="no"?>
<!DOCTYPE svg PUBLIC "-//W3C//DTD SVG 1.1//EN"
 "http://www.w3.org/Graphics/SVG/1.1/DTD/svg11.dtd">
<!-- Generated by graphviz version 2.43.0 (0)
 -->
<!-- Title: Graphical Class Hierarchy Pages: 1 -->
<svg width="377pt" height="86pt"
 viewBox="0.00 0.00 377.00 86.00" xmlns="http://www.w3.org/2000/svg" xmlns:xlink="http://www.w3.org/1999/xlink">
<g id="graph0" class="graph" transform="scale(1 1) rotate(0) translate(4 82)">
<title>Graphical Class Hierarchy</title>
<!-- Node0 -->
<g id="Node000000" class="node">
<title>Node0</title>
<g id="a_Node000000"><a xlink:href="interfacecom_1_1carrental_1_1gateway_1_1PaymentGateway.html" target="_top" xlink:title=" ">
<polygon fill="white" stroke="#666666" points="173,-54 0,-54 0,-24 173,-24 173,-54"/>
<text text-anchor="start" x="8" y="-42" font-family="Helvetica,sans-Serif" font-size="10.00">com.carrental.gateway.Payment</text>
<text text-anchor="middle" x="86.5" y="-31" font-family="Helvetica,sans-Serif" font-size="10.00">Gateway</text>
</a>
</g>
</g>
<!-- Node1 -->
<g id="Node000001" class="node">
<title>Node1</title>
<g id="a_Node000001"><a xlink:href="classcom_1_1carrental_1_1gateway_1_1CreditCardGateway.html" target="_top" xlink:title=" ">
<polygon fill="white" stroke="#666666" points="369,-78 209,-78 209,-48 369,-48 369,-78"/>
<text text-anchor="start" x="217" y="-66" font-family="Helvetica,sans-Serif" font-size="10.00">com.carrental.gateway.Credit</text>
<text text-anchor="middle" x="289" y="-55" font-family="Helvetica,sans-Serif" font-size="10.00">CardGateway</text>
</a>
</g>
</g>
<!-- Node0&#45;&gt;Node1 -->
<g id="edge1_Node000000_Node000001" class="edge">
<title>Node0&#45;&gt;Node1</title>
<g id="a_edge1_Node000000_Node000001"><a xlink:title=" ">
<path fill="none" stroke="#63b8ff" d="M183.13,-50.45C191.7,-51.47 200.31,-52.5 208.71,-53.51"/>
<polygon fill="#63b8ff" stroke="#63b8ff" points="183.46,-46.96 173.11,-49.25 182.62,-53.91 183.46,-46.96"/>
</a>
</g>
</g>
<!-- Node2 -->
<g id="Node000002" class="node">
<title>Node2</title>
<g id="a_Node000002"><a xlink:href="classcom_1_1carrental_1_1gateway_1_1PayPalGateway.html" target="_top" xlink:title=" ">
<polygon fill="white" stroke="#666666" points="363,-30 215,-30 215,0 363,0 363,-30"/>
<text text-anchor="start" x="223" y="-18" font-family="Helvetica,sans-Serif" font-size="10.00">com.carrental.gateway.Pay</text>
<text text-anchor="middle" x="289" y="-7" font-family="Helvetica,sans-Serif" font-size="10.00">PalGateway</text>
</a>
</g>
</g>
<!-- Node0&#45;&gt;Node2 -->
<g id="edge2_Node000000_Node000002" class="edge">
<title>Node0&#45;&gt;Node2</title>
<g id="a_edge2_Node000000_Node000002"><a xlink:title=" ">
<path fill="none" stroke="#63b8ff" d="M183.29,-27.53C193.95,-26.26 204.68,-24.97 214.99,-23.74"/>
<polygon fill="#63b8ff" stroke="#63b8ff" points="182.62,-24.09 173.11,-28.75 183.46,-31.04 182.62,-24.09"/>
</a>
</g>
</g>
</g>
</svg>
